<svg xmlns="http://www.w3.org/2000/svg" viewBox="0 0 140 200" width="140" height="200">
	<defs>
		<clipPath clipPathUnits="userSpaceOnUse" id="cp1">
			<path d="M0 0L140 0L140 200L0 200Z" />
		</clipPath>
	</defs>
	<style>
		tspan { white-space:pre }
		.shp0 { fill: #4C76FF } 
	</style>
	<g id="Page 1" clip-path="url(#cp1)">
		<path id="Path 1" class="shp0" d="M12.54 197.62C15.6 187.61 20.24 173.5 26.45 153.11C53.52 148.74 64.72 156.59 81.91 125.26C67.96 129.62 51.13 117.18 52.04 111.79C52.94 106.39 91.17 115.68 116.2 79.41C84.64 86.5 74.56 70.88 78.63 68.52C88.02 63.06 115.89 66.25 130.75 51.49C138.41 43.89 141.99 25.4 138.88 18.81C135.13 10.84 112.32 -1.04 99.74 0.07C87.16 1.19 67.42 48.96 61.57 48.58C55.72 48.21 54.55 27.19 64.76 7.65C53.99 12.51 34.25 27.64 28.06 40.57C16.53 64.62 29.14 119.8 25.1 121.77C21.05 123.73 7.44 96.44 3.38 84.07C-2.17 103.04 -2.3 122.04 13.92 147.28C7.8 163.84 4.46 182.9 3.95 192.58C3.72 200.34 11.19 202 12.54 197.62Z" />
	</g>
</svg>