<svg xmlns="http://www.w3.org/2000/svg" viewBox="0 0 172 180" width="172" height="180">
	<defs>
		<clipPath clipPathUnits="userSpaceOnUse" id="cp1">
			<path d="M0 0L172 0L172 180L0 180Z" />
		</clipPath>
	</defs>
	<style>
		tspan { white-space:pre }
		.shp0 { fill: #4C76FF } 
	</style>
	<g id="Page 1" clip-path="url(#cp1)">
		<path id="Path 1" fill-rule="evenodd" class="shp0" d="M163.79 139.73C147.13 146.5 137.98 116.28 89.05 121.38C81.94 122.12 77.04 126.75 79.35 132.43C81.04 136.61 86.93 149.86 88.74 154C90.54 158.13 96.86 159.17 98.4 162.72C99.83 166.01 98.72 170.18 94.04 171.96C89.36 173.74 77.13 178.39 73.54 179.76C69.94 181.13 64.98 176.47 62.79 171.45C60.6 166.42 54.17 151.65 51.21 144.85C48.75 139.2 41.81 144.48 35.17 135.58C35.17 135.58 29.27 137.48 27.67 138.13C18.38 141.9 5.67 132.91 1.79 123.88C-2.09 114.85 0.26 99.74 9.55 95.97C117.06 52.27 82.12 9.53 104.02 0.63C116.91 -4.61 142.39 23.45 158.23 60.29C174.06 97.14 176.68 134.49 163.79 139.73ZM144.34 67.21C132.03 38.58 113.25 20.25 110.39 21.42C107.53 22.58 105.98 48.76 118.29 77.39C130.59 106.04 149.85 121.23 152.72 120.06C155.58 118.9 156.64 95.85 144.34 67.21Z" />
	</g>
</svg>